<svg xmlns="http://www.w3.org/2000/svg" width="16.05" height="16.05" viewBox="0 0 16.05 16.05">
  <path id="Icon_awesome-pen-alt" data-name="Icon awesome-pen-alt" d="M15.609,2.325,13.724.441a1.505,1.505,0,0,0-2.129,0L9.823,2.213l4.013,4.013,1.773-1.773a1.505,1.505,0,0,0,0-2.129ZM7.872,1.681a1.254,1.254,0,0,0-1.773,0L2.376,5.405a.5.5,0,0,0,0,.709l.709.709a.5.5,0,0,0,.709,0L6.986,3.632l.709.709L2.945,9.092A10.252,10.252,0,0,0,0,15.207v.007a.752.752,0,0,0,.83.831A10.251,10.251,0,0,0,6.958,13.1l6.169-6.169L10.532,4.341l-2.66-2.66Z" transform="translate(0.001 0)" fill="#c9e0f9"/>
</svg>
